<svg width="24" height="24" viewBox="0 0 24 24" fill="none" xmlns="http://www.w3.org/2000/svg">
<path d="M12.8487 1.75161C12.6237 1.52665 12.3185 1.40027 12.0003 1.40027C11.6821 1.40027 11.3769 1.52665 11.1519 1.75161L2.75189 10.1516C2.5333 10.3779 2.41235 10.6811 2.41508 10.9957C2.41782 11.3103 2.54402 11.6113 2.76651 11.8338C2.989 12.0563 3.28998 12.1825 3.60461 12.1852C3.91925 12.188 4.22237 12.067 4.44869 11.8484L4.80029 11.4968V19.4C4.80029 19.7183 4.92672 20.0235 5.15177 20.2485C5.37681 20.4736 5.68203 20.6 6.00029 20.6H8.40029C8.71855 20.6 9.02378 20.4736 9.24882 20.2485C9.47386 20.0235 9.60029 19.7183 9.60029 19.4V17C9.60029 16.6818 9.72672 16.3765 9.95177 16.1515C10.1768 15.9264 10.482 15.8 10.8003 15.8H13.2003C13.5186 15.8 13.8238 15.9264 14.0488 16.1515C14.2739 16.3765 14.4003 16.6818 14.4003 17V19.4C14.4003 19.7183 14.5267 20.0235 14.7518 20.2485C14.9768 20.4736 15.282 20.6 15.6003 20.6H18.0003C18.3186 20.6 18.6238 20.4736 18.8488 20.2485C19.0739 20.0235 19.2003 19.7183 19.2003 19.4V11.4968L19.5519 11.8484C19.7782 12.067 20.0813 12.188 20.396 12.1852C20.7106 12.1825 21.0116 12.0563 21.2341 11.8338C21.4566 11.6113 21.5828 11.3103 21.5855 10.9957C21.5882 10.6811 21.4673 10.3779 21.2487 10.1516L12.8487 1.75161Z" fill="#898A8D"/>
</svg>
